<svg class="svg-icon" style="width: 1em; height: 1em;vertical-align: middle;fill: currentColor;overflow: hidden;" viewBox="0 0 1024 1024" version="1.1" xmlns="http://www.w3.org/2000/svg"><path d="M256 475.428571m18.102857 0l731.794286 0q18.102857 0 18.102857 18.102858l0 36.937142q0 18.102857-18.102857 18.102858l-731.794286 0q-18.102857 0-18.102857-18.102858l0-36.937142q0-18.102857 18.102857-18.102858Z"  /><path d="M256 146.285714m18.102857 0l731.794286 0q18.102857 0 18.102857 18.102857l0 36.937143q0 18.102857-18.102857 18.102857l-731.794286 0q-18.102857 0-18.102857-18.102857l0-36.937143q0-18.102857 18.102857-18.102857Z"  /><path d="M256 804.571429m18.102857 0l731.794286 0q18.102857 0 18.102857 18.102857l0 36.937143q0 18.102857-18.102857 18.102857l-731.794286 0q-18.102857 0-18.102857-18.102857l0-36.937143q0-18.102857 18.102857-18.102857Z"  /><path d="M73.142857 182.857143m-73.142857 0a73.142857 73.142857 0 1 0 146.285714 0 73.142857 73.142857 0 1 0-146.285714 0Z"  /><path d="M73.142857 512m-73.142857 0a73.142857 73.142857 0 1 0 146.285714 0 73.142857 73.142857 0 1 0-146.285714 0Z"  /><path d="M73.142857 841.142857m-73.142857 0a73.142857 73.142857 0 1 0 146.285714 0 73.142857 73.142857 0 1 0-146.285714 0Z"  /></svg>